<svg width="16" height="11" viewBox="0 0 16 11" fill="none" xmlns="http://www.w3.org/2000/svg">
<path d="M15.6665 1V10C15.6665 10.1326 15.6138 10.2598 15.5201 10.3536C15.4263 10.4473 15.2991 10.5 15.1665 10.5H1.1665C1.0339 10.5 0.906719 10.4473 0.812951 10.3536C0.719182 10.2598 0.666504 10.1326 0.666504 10C0.666504 9.86739 0.719182 9.74021 0.812951 9.64645C0.906719 9.55268 1.0339 9.5 1.1665 9.5H4.1665V7C4.1665 6.86739 4.21918 6.74021 4.31295 6.64645C4.40672 6.55268 4.5339 6.5 4.6665 6.5H7.6665V4C7.6665 3.86739 7.71918 3.74021 7.81295 3.64645C7.90672 3.55268 8.0339 3.5 8.1665 3.5H11.1665V1C11.1665 0.867392 11.2192 0.740215 11.313 0.646447C11.4067 0.552679 11.5339 0.5 11.6665 0.5H15.1665C15.2991 0.5 15.4263 0.552679 15.5201 0.646447C15.6138 0.740215 15.6665 0.867392 15.6665 1Z" fill="#A3A3A3"/>
</svg>
