<svg width="11" height="15" viewBox="0 0 11 15" fill="none" xmlns="http://www.w3.org/2000/svg">
<path d="M5.6665 7.125C5.16922 7.125 4.69231 6.92746 4.34068 6.57582C3.98905 6.22419 3.7915 5.74728 3.7915 5.25C3.7915 4.75272 3.98905 4.2758 4.34068 3.92417C4.69231 3.57254 5.16922 3.375 5.6665 3.375C6.16379 3.375 6.6407 3.57254 6.99233 3.92417C7.34396 4.2758 7.5415 4.75272 7.5415 5.25C7.5415 5.49623 7.49301 5.74005 7.39878 5.96753C7.30455 6.19502 7.16644 6.40171 6.99233 6.57582C6.81822 6.74993 6.61152 6.88805 6.38404 6.98227C6.15655 7.0765 5.91273 7.125 5.6665 7.125ZM5.6665 0C4.27412 0 2.93876 0.553123 1.95419 1.53769C0.969627 2.52226 0.416504 3.85761 0.416504 5.25C0.416504 9.1875 5.6665 15 5.6665 15C5.6665 15 10.9165 9.1875 10.9165 5.25C10.9165 3.85761 10.3634 2.52226 9.37881 1.53769C8.39425 0.553123 7.05889 0 5.6665 0Z" fill="#A3A3A3"/>
</svg>
