<svg width="18" height="17" viewBox="0 0 18 17" fill="none" xmlns="http://www.w3.org/2000/svg">
<path d="M12.2665 12.168C11.47 12.7426 10.4986 13.0226 9.51849 12.96H7.23848V16.8H4.95848V6.00004H9.66249C10.5986 5.95041 11.5205 6.24491 12.2545 6.82804C12.5969 7.15963 12.8617 7.56296 13.0298 8.00905C13.1978 8.45513 13.265 8.93291 13.2265 9.40804C13.2882 9.91087 13.2338 10.4212 13.0673 10.8996C12.9009 11.3781 12.6269 11.8121 12.2665 12.168ZM10.4665 8.28004C10.1197 8.02578 9.69596 7.89865 9.26649 7.92004H7.23848V11.1H9.26649C9.69997 11.123 10.1269 10.9864 10.4665 10.716C10.619 10.5577 10.7363 10.369 10.8107 10.1622C10.8852 9.9554 10.9151 9.73521 10.8985 9.51604C10.9264 9.29067 10.902 9.06189 10.827 8.84752C10.7521 8.63314 10.6287 8.43894 10.4665 8.28004ZM16.9585 5.05204C17.0242 4.90867 17.0308 4.74519 16.9769 4.59697C16.923 4.44874 16.8129 4.32771 16.6705 4.26004L8.66648 0.540039L0.614485 4.26004C0.542784 4.29313 0.478302 4.34002 0.424722 4.39804C0.371143 4.45605 0.329514 4.52405 0.302214 4.59815C0.274914 4.67225 0.262476 4.751 0.265611 4.82991C0.268746 4.90882 0.287392 4.98634 0.320485 5.05804C0.353578 5.12974 0.40047 5.19422 0.458483 5.2478C0.516496 5.30138 0.584495 5.34301 0.658596 5.37031C0.732697 5.39761 0.81145 5.41005 0.890358 5.40691C0.969266 5.40378 1.04678 5.38513 1.11849 5.35204L8.66648 1.86004L16.2145 5.34004C16.3579 5.40576 16.5213 5.41239 16.6696 5.35849C16.8178 5.30459 16.9388 5.1945 17.0065 5.05204H16.9585Z" fill="#A3A3A3"/>
</svg>
