<svg width="25" height="24" viewBox="0 0 25 24" fill="none" xmlns="http://www.w3.org/2000/svg">
<path d="M13 7C13 5.89 13.89 5 15 5H18.5C19.6 5 20.5 5.9 20.5 7V9.16C19.34 9.57 18.5 10.67 18.5 11.97V14H13V7ZM6.5 11.96V14H12V7C12 5.89 11.11 5 10 5H6.5C5.4 5 4.5 5.9 4.5 7V9.15C5.66 9.56 6.5 10.67 6.5 11.96ZM21.16 10.03C20.18 10.19 19.5 11.12 19.5 12.12V15H5.5V12C5.5 11.4696 5.28929 10.9609 4.91421 10.5858C4.53914 10.2107 4.03043 10 3.5 10C2.96957 10 2.46086 10.2107 2.08579 10.5858C1.71071 10.9609 1.5 11.4696 1.5 12V17C1.5 18.1 2.4 19 3.5 19V21H5.5V19H19.5V21H21.5V19C22.6 19 23.5 18.1 23.5 17V12C23.5 10.79 22.41 9.82 21.16 10.03Z" fill="url(#paint0_linear_0_899)"/>
<defs>
<linearGradient id="paint0_linear_0_899" x1="12.5" y1="5" x2="12.5" y2="21" gradientUnits="userSpaceOnUse">
<stop stop-color="#99FF75"/>
<stop offset="0.90983" stop-color="#68C945"/>
</linearGradient>
</defs>
</svg>
