<svg width="24" height="24" viewBox="0 0 24 24" fill="none" xmlns="http://www.w3.org/2000/svg">
<path d="M20.6775 6.42369C20.9655 6.62844 21.0878 7.01394 20.934 7.33119C20.6903 7.83519 20.169 8.22744 19.5683 8.22744C19.1768 8.22744 18.8198 8.06244 18.5513 7.80744C18.4169 7.68059 18.2392 7.60993 18.0544 7.60993C17.8696 7.60993 17.6919 7.68059 17.5575 7.80744C17.2848 8.0725 16.9208 8.22283 16.5405 8.22744C16.1606 8.22321 15.7969 8.0728 15.525 7.80744C15.3905 7.68071 15.2126 7.61014 15.0278 7.61014C14.8429 7.61014 14.6651 7.68071 14.5305 7.80744C14.2578 8.0725 13.8938 8.22283 13.5135 8.22744C13.2345 8.22744 12.975 8.14044 12.7508 7.99944V13.4782C12.7508 13.6771 12.6718 13.8679 12.5311 14.0085C12.3904 14.1492 12.1997 14.2282 12.0008 14.2282C11.8019 14.2282 11.6111 14.1492 11.4704 14.0085C11.3298 13.8679 11.2508 13.6771 11.2508 13.4782V8.00094C11.0226 8.148 10.7572 8.22684 10.4858 8.22819C10.1063 8.223 9.74317 8.07272 9.47102 7.80819C9.33617 7.68174 9.15825 7.61137 8.97339 7.61137C8.78854 7.61137 8.61061 7.68174 8.47577 7.80819C8.20802 8.06169 7.85102 8.22819 7.45952 8.22819C7.07976 8.22319 6.71636 8.07289 6.44402 7.80819C6.30917 7.68174 6.13125 7.61137 5.94639 7.61137C5.76154 7.61137 5.58361 7.68174 5.44877 7.80819C5.18102 8.06169 4.82402 8.22819 4.43327 8.22819C3.83102 8.22819 3.31127 7.83519 3.06752 7.33119C2.91302 7.01319 3.03602 6.62844 3.32252 6.42369L11.5455 0.153687C11.6762 0.0539973 11.836 0 12.0004 0C12.1648 0 12.3246 0.0539973 12.4553 0.153687L20.6775 6.42369ZM17.25 14.9774C17.6478 14.9774 18.0294 15.1355 18.3107 15.4168C18.592 15.6981 18.75 16.0796 18.75 16.4774C18.75 16.8753 18.592 17.2568 18.3107 17.5381C18.0294 17.8194 17.6478 17.9774 17.25 17.9774H13.9358L17.8313 22.7534C17.957 22.9076 18.0163 23.1054 17.9962 23.3033C17.9761 23.5012 17.8782 23.683 17.724 23.8087C17.5699 23.9344 17.3721 23.9937 17.1742 23.9736C16.9763 23.9535 16.7945 23.8556 16.6688 23.7014L12 17.9774L7.33127 23.7014C7.20256 23.8458 7.02313 23.9349 6.83036 23.9502C6.6376 23.9655 6.44636 23.9058 6.2965 23.7836C6.14664 23.6614 6.04971 23.486 6.02591 23.2941C6.00212 23.1022 6.05329 22.9085 6.16877 22.7534L10.0643 17.9774H6.75002C6.35219 17.9774 5.97066 17.8194 5.68936 17.5381C5.40805 17.2568 5.25002 16.8753 5.25002 16.4774C5.25002 16.0796 5.40805 15.6981 5.68936 15.4168C5.97066 15.1355 6.35219 14.9774 6.75002 14.9774H17.25Z" fill="url(#paint0_linear_0_895)"/>
<defs>
<linearGradient id="paint0_linear_0_895" x1="12.0006" y1="0" x2="12.0006" y2="23.9775" gradientUnits="userSpaceOnUse">
<stop stop-color="#99FF75"/>
<stop offset="0.90983" stop-color="#68C945"/>
</linearGradient>
</defs>
</svg>
